<svg width="512" height="512" viewBox="0 0 512 512" xmlns="http://www.w3.org/2000/svg" role="img" aria-label="OIAS PFA">
  <rect width="512" height="512" rx="104" fill="#0d1f17"/>
  <g fill="none" stroke="#b6ff3c" stroke-width="20" stroke-linejoin="round" stroke-linecap="round">
    <path d="M112 196 h66 l28 -34 h100 l28 34 h66 a24 24 0 0 1 24 24 v140 a24 24 0 0 1 -24 24 H112 a24 24 0 0 1 -24 -24 V220 a24 24 0 0 1 24 -24 z"/>
    <circle cx="256" cy="288" r="58"/>
  </g>
  <path d="M256 262 c0 -34 26 -58 60 -58 c0 34 -26 58 -60 58 z" fill="#b6ff3c"/>
</svg>
